# xmcd
#
# Track frame offsets:
#	150
#	17302
#	36689
#	62061
#	81018
#	94650
#	113827
#	128689
#	144556
#	159893
#
# Disc length: 2395 seconds
#
# Revision: 0
# Processed by: cddbd v1.5PL3 Copyright (c) Steve Scherf et al.
# Submitted via: dBpowerAMP V4.0
#
DISCID=7709590a
DTITLE=Benny - Cielo
DYEAR=1900
DGENRE=Latin
TTITLE0=Cielo 2002
TTITLE1=Tonto Corazón
TTITLE2=Sin Tí
TTITLE3=Todo o Nada
TTITLE4=Inspiración
TTITLE5=Irremediable
TTITLE6=Uno
TTITLE7=Mía
TTITLE8=Sutil Dolor
TTITLE9=Estoy
EXTD=
EXTT0=
EXTT1=
EXTT2=
EXTT3=
EXTT4=
EXTT5=
EXTT6=
EXTT7=
EXTT8=
EXTT9=
PLAYORDER=
